<svg id="Слой_1" data-name="Слой 1" xmlns="http://www.w3.org/2000/svg" xmlns:xlink="http://www.w3.org/1999/xlink" viewBox="0 0 461.11 612.77"><defs><style>.cls-1{fill:url(#Безымянный_градиент_9);}.cls-2{fill:url(#Безымянный_градиент_9-2);}.cls-3{fill:url(#Безымянный_градиент_9-3);}</style><linearGradient id="Безымянный_градиент_9" x1="264.08" y1="130.86" x2="451.13" y2="130.86" gradientUnits="userSpaceOnUse"><stop offset="0" stop-color="#6f68f2"/><stop offset="1" stop-color="#7bb1f9"/></linearGradient><linearGradient id="Безымянный_градиент_9-2" x1="185.45" y1="342.79" x2="410.81" y2="342.79" xlink:href="#Безымянный_градиент_9"/><linearGradient id="Безымянный_градиент_9-3" x1="9.24" y1="396.47" x2="361.64" y2="396.47" xlink:href="#Безымянный_градиент_9"/></defs><title>2</title><path class="cls-1" d="M427.55,185.7a153.46,153.46,0,0,0,9.16-16.93c1.82-4,3.51-8,5-12.22a154.78,154.78,0,0,0-20.86-145,154.67,154.67,0,0,0-109.2,97.68q-2.3,6.3-4,12.66a153.34,153.34,0,0,0-3.86,18.75,96.37,96.37,0,0,0-38.94,48.55c-.28.75-.54,1.5-.79,2.25a155.06,155.06,0,0,0,43,9.07,156,156,0,0,0,9.52,26.79l45.42,16.53a156.17,156.17,0,0,0,24.47-14.37,154.57,154.57,0,0,0,38.82,20.74c.28-.73.57-1.48.84-2.23A96.4,96.4,0,0,0,427.55,185.7Zm-48.74-58.55a19.38,19.38,0,1,1,24.84-11.58A19.38,19.38,0,0,1,378.81,127.15Z"/><path class="cls-2" d="M385.3,345.68a38.17,38.17,0,0,0-11.53-2.3,31.11,31.11,0,0,1,5.57,26.34,30.71,30.71,0,0,1-2.91,7.55,34.79,34.79,0,0,0-45.3-40.53A31.13,31.13,0,0,1,356.34,332a30.44,30.44,0,0,1,6.2,2.22A154.61,154.61,0,0,1,353,252l-32.59-11.86a154.68,154.68,0,0,1-68,60.65,31.08,31.08,0,0,1,16.75,17.82,31.78,31.78,0,0,1,1.79,7.89,34.78,34.78,0,0,0-60.19-8.48,31.22,31.22,0,0,1,27.57-19.85l-.81-.31A38.76,38.76,0,0,0,190.62,315a38.27,38.27,0,0,0-2.83,6.07,38.77,38.77,0,0,0,45.8,50.87,38.63,38.63,0,0,0,22.5,21.5,39.11,39.11,0,0,0,6.87,1.8,31.23,31.23,0,0,1-1.36-32.68,34.78,34.78,0,0,0,44.81,41.06,31.22,31.22,0,0,1-40.33-4.44,38.76,38.76,0,1,0,76.79,8.46,38.77,38.77,0,0,0,65.32-11.56c.1-.24.19-.48.28-.72A38.77,38.77,0,0,0,385.3,345.68ZM281.89,369.4a31.23,31.23,0,0,1,17.44-46.35,34.8,34.8,0,0,0,3.86,60.67A31.15,31.15,0,0,1,281.89,369.4Z"/><path class="cls-3" d="M361.64,429.76q-.72,72.93-50.74,123.33-50.74,51.15-125.06,51.14-75.12,0-125.86-50.74T9.24,427.63V244.23q0-24.36,15-39.95T64,188.7q24.36,0,40,15.58t15.58,39.95v183.4q0,28,19.18,47.15T185.84,494q28,0,46.75-19.18t18.78-47.15V402.32c.43.19.86.35,1.3.51.91.33,1.83.64,2.76.92a48.76,48.76,0,0,0,93.77,21.44,48.51,48.51,0,0,0,6.16,2.74A50,50,0,0,0,361.64,429.76Z"/></svg>